<?xml version="1.0" encoding="UTF-8"?>
<svg version="1.1" xmlns="http://www.w3.org/2000/svg" width="180" height="180">
<path d="M0 0 C59.4 0 118.8 0 180 0 C180 59.4 180 118.8 180 180 C120.6 180 61.2 180 0 180 C0 120.6 0 61.2 0 0 Z " fill="#1B2637" transform="translate(0,0)"/>
<path d="M0 0 C6.6825 -0.12375 6.6825 -0.12375 13.5 -0.25 C15.58344727 -0.30462402 15.58344727 -0.30462402 17.70898438 -0.36035156 C24.95950601 -0.42520043 29.91559188 -0.07823745 36 4 C40.05784486 9.09831791 41.37081667 13.2650276 41.27734375 19.65234375 C40.65844598 24.89118266 38.12520936 28.10920925 34 31.375 C28.91773002 34.12789624 24.44482165 34.12739662 18.75 34.0625 C14.91375 34.0315625 14.91375 34.0315625 11 34 C11 40.27 11 46.54 11 53 C7.37 53 3.74 53 0 53 C0 35.51 0 18.02 0 0 Z " fill="#FAFAFB" transform="translate(50,62)"/>
<path d="M0 0 C3.63 0 7.26 0 11 0 C11 14.52 11 29.04 11 44 C18.59 44 26.18 44 34 44 C34 46.97 34 49.94 34 53 C22.78 53 11.56 53 0 53 C0 35.51 0 18.02 0 0 Z " fill="#F5F6F6" transform="translate(99,62)"/>
<path d="M0 0 C12.25039333 -0.49496539 12.25039333 -0.49496539 15.86328125 1.890625 C18.39513566 4.39007908 18.92094766 5.28852898 19.3125 8.8125 C18.91413716 12.87580101 17.96207752 14.21161007 15 17 C12.14291262 17.37993183 10.06027013 17.48382096 7.25 17.3125 C4.8575 17.209375 2.465 17.10625 0 17 C0 11.39 0 5.78 0 0 Z " fill="#1E2939" transform="translate(61,70)"/>
</svg>
