<?xml version="1.0" encoding="UTF-8"?>
<svg version="1.1" xmlns="http://www.w3.org/2000/svg" width="512" height="512">
<path d="M0 0 C0.92220337 0.00182281 1.84440674 0.00364563 2.79455566 0.00552368 C16.841657 0.05219735 30.55997339 0.56067231 44.375 3.3125 C45.27976074 3.48942383 46.18452148 3.66634766 47.11669922 3.84863281 C53.58657431 5.14731809 59.98813627 6.65502172 66.375 8.3125 C67.62095947 8.63492676 67.62095947 8.63492676 68.89208984 8.96386719 C103.17583645 18.0563653 134.94322134 34.94908514 162.375 57.3125 C162.92575195 57.76028809 163.47650391 58.20807617 164.04394531 58.66943359 C177.40993434 69.62497503 189.7986461 81.61848954 200.375 95.3125 C201.53515625 96.74722656 201.53515625 96.74722656 202.71875 98.2109375 C238.24029381 142.83768716 256.92122501 199.14424287 256.6875 255.9375 C256.68476578 257.32080505 256.68476578 257.32080505 256.68197632 258.73205566 C256.63530265 272.779157 256.12682769 286.49747339 253.375 300.3125 C253.19807617 301.21726074 253.02115234 302.12202148 252.83886719 303.05419922 C251.54018191 309.52407431 250.03247828 315.92563627 248.375 322.3125 C248.16004883 323.14313965 247.94509766 323.9737793 247.72363281 324.82958984 C238.6311347 359.11333645 221.73841486 390.88072134 199.375 418.3125 C198.92721191 418.86325195 198.47942383 419.41400391 198.01806641 419.98144531 C187.06252497 433.34743434 175.06901046 445.7361461 161.375 456.3125 C159.94027344 457.47265625 159.94027344 457.47265625 158.4765625 458.65625 C113.84981284 494.17779381 57.54325713 512.85872501 0.75 512.625 C-0.17220337 512.62317719 -1.09440674 512.62135437 -2.04455566 512.61947632 C-16.091657 512.57280265 -29.80997339 512.06432769 -43.625 509.3125 C-44.52976074 509.13557617 -45.43452148 508.95865234 -46.36669922 508.77636719 C-52.83657431 507.47768191 -59.23813627 505.96997828 -65.625 504.3125 C-66.45563965 504.09754883 -67.2862793 503.88259766 -68.14208984 503.66113281 C-102.42583645 494.5686347 -134.19322134 477.67591486 -161.625 455.3125 C-162.17575195 454.86471191 -162.72650391 454.41692383 -163.29394531 453.95556641 C-176.65993434 443.00002497 -189.0486461 431.00651046 -199.625 417.3125 C-200.78515625 415.87777344 -200.78515625 415.87777344 -201.96875 414.4140625 C-237.49029381 369.78731284 -256.17122501 313.48075713 -255.9375 256.6875 C-255.93567719 255.76529663 -255.93385437 254.84309326 -255.93197632 253.89294434 C-255.88530265 239.845843 -255.37682769 226.12752661 -252.625 212.3125 C-252.44807617 211.40773926 -252.27115234 210.50297852 -252.08886719 209.57080078 C-250.79018191 203.10092569 -249.28247828 196.69936373 -247.625 190.3125 C-247.41004883 189.48186035 -247.19509766 188.6512207 -246.97363281 187.79541016 C-237.8811347 153.51166355 -220.98841486 121.74427866 -198.625 94.3125 C-198.17721191 93.76174805 -197.72942383 93.21099609 -197.26806641 92.64355469 C-186.31252497 79.27756566 -174.31901046 66.8888539 -160.625 56.3125 C-159.19027344 55.15234375 -159.19027344 55.15234375 -157.7265625 53.96875 C-113.09981284 18.44720619 -56.79325713 -0.23372501 0 0 Z " fill="#1B2637" transform="translate(255.625,-0.3125)"/>
<path d="M0 0 C86.57000751 0 86.57000751 0 104.5859375 17.2890625 C114.39561455 28.30510761 116.9544108 41.32645824 116.54296875 55.609375 C115.82580789 65.79053012 111.20798088 76.04360415 104 83.33203125 C87.53621289 97.06257246 69.25535861 98.32987228 48.75 98.125 C42.8925 98.08375 37.035 98.0425 31 98 C31 115.82 31 133.64 31 152 C20.77 152 10.54 152 0 152 C0 101.84 0 51.68 0 0 Z " fill="#FCFCFC" transform="translate(143,175)"/>
<path d="M0 0 C10.23 0 20.46 0 31 0 C31 42.24 31 84.48 31 128 C52.78 128 74.56 128 97 128 C97 135.92 97 143.84 97 152 C64.99 152 32.98 152 0 152 C0 101.84 0 51.68 0 0 Z " fill="#FDFDFD" transform="translate(281,175)"/>
<path d="M0 0 C5.28 -0.04125 10.56 -0.0825 16 -0.125 C18.475 -0.15231201 18.475 -0.15231201 21 -0.18017578 C22.33333004 -0.18602649 23.66666371 -0.19112067 25 -0.1953125 C26.00740234 -0.2106604 26.00740234 -0.2106604 27.03515625 -0.22631836 C34.03036903 -0.22884553 40.81802505 0.92039494 46.390625 5.35546875 C51.93662618 11.02262044 53.48247897 17.34048234 53.5625 25.125 C53.41366996 33.19926381 51.8697465 38.06503199 46.25 43.8125 C39.90488042 48.08325356 34.13996448 49.45567242 26.5625 49.29296875 C25.88251953 49.28994751 25.20253906 49.28692627 24.50195312 49.28381348 C22.00114407 49.26830913 19.50055413 49.22642762 17 49.1875 C8.585 49.0946875 8.585 49.0946875 0 49 C0 32.83 0 16.66 0 0 Z " fill="#1E293A" transform="translate(174,200)"/>
</svg>
